<svg width="115" height="50" viewBox="0 0 115 50" fill="none" xmlns="http://www.w3.org/2000/svg">
<path d="M43 39H49V4H8V10H1V46H43V39ZM10 6H47V37H43V10H10V6ZM8 12H41V19.586L37 15.586L20 32.586L10 22.586L3 29.586V12H8ZM41 44H3V32.414L10 25.414L20 35.414L37 18.414L41 22.414V39V44Z" fill="black"/>
<path d="M20 25C22.757 25 25 22.757 25 20C25 17.243 22.757 15 20 15C17.243 15 15 17.243 15 20C15 22.757 17.243 25 20 25ZM20 17C21.654 17 23 18.346 23 20C23 21.654 21.654 23 20 23C18.346 23 17 21.654 17 20C17 18.346 18.346 17 20 17Z" fill="black"/>
<path d="M63.774 23.126C63.774 24.17 63.414 25.04 62.694 25.736C61.986 26.42 60.9 26.762 59.436 26.762H57.024V32H55.386V19.454H59.436C60.852 19.454 61.926 19.796 62.658 20.48C63.402 21.164 63.774 22.046 63.774 23.126ZM59.436 25.412C60.348 25.412 61.02 25.214 61.452 24.818C61.884 24.422 62.1 23.858 62.1 23.126C62.1 21.578 61.212 20.804 59.436 20.804H57.024V25.412H59.436ZM70.7058 21.956C71.4498 21.956 72.1218 22.118 72.7218 22.442C73.3218 22.754 73.7898 23.228 74.1258 23.864C74.4738 24.5 74.6478 25.274 74.6478 26.186V32H73.0278V26.42C73.0278 25.436 72.7818 24.686 72.2898 24.17C71.7978 23.642 71.1258 23.378 70.2738 23.378C69.4098 23.378 68.7198 23.648 68.2038 24.188C67.6998 24.728 67.4478 25.514 67.4478 26.546V32H65.8098V18.68H67.4478V23.54C67.7718 23.036 68.2158 22.646 68.7798 22.37C69.3558 22.094 69.9978 21.956 70.7058 21.956ZM76.7115 27.032C76.7115 26.024 76.9155 25.142 77.3235 24.386C77.7315 23.618 78.2895 23.024 78.9975 22.604C79.7175 22.184 80.5155 21.974 81.3915 21.974C82.2555 21.974 83.0055 22.16 83.6415 22.532C84.2775 22.904 84.7515 23.372 85.0635 23.936V22.136H86.7195V32H85.0635V30.164C84.7395 30.74 84.2535 31.22 83.6055 31.604C82.9695 31.976 82.2255 32.162 81.3735 32.162C80.4975 32.162 79.7055 31.946 78.9975 31.514C78.2895 31.082 77.7315 30.476 77.3235 29.696C76.9155 28.916 76.7115 28.028 76.7115 27.032ZM85.0635 27.05C85.0635 26.306 84.9135 25.658 84.6135 25.106C84.3135 24.554 83.9055 24.134 83.3895 23.846C82.8855 23.546 82.3275 23.396 81.7155 23.396C81.1035 23.396 80.5455 23.54 80.0415 23.828C79.5375 24.116 79.1355 24.536 78.8355 25.088C78.5355 25.64 78.3855 26.288 78.3855 27.032C78.3855 27.788 78.5355 28.448 78.8355 29.012C79.1355 29.564 79.5375 29.99 80.0415 30.29C80.5455 30.578 81.1035 30.722 81.7155 30.722C82.3275 30.722 82.8855 30.578 83.3895 30.29C83.9055 29.99 84.3135 29.564 84.6135 29.012C84.9135 28.448 85.0635 27.794 85.0635 27.05ZM91.1256 23.954C91.4496 23.39 91.9296 22.922 92.5656 22.55C93.2136 22.166 93.9636 21.974 94.8156 21.974C95.6916 21.974 96.4836 22.184 97.1916 22.604C97.9116 23.024 98.4756 23.618 98.8836 24.386C99.2916 25.142 99.4956 26.024 99.4956 27.032C99.4956 28.028 99.2916 28.916 98.8836 29.696C98.4756 30.476 97.9116 31.082 97.1916 31.514C96.4836 31.946 95.6916 32.162 94.8156 32.162C93.9756 32.162 93.2316 31.976 92.5836 31.604C91.9476 31.22 91.4616 30.746 91.1256 30.182V36.68H89.4876V22.136H91.1256V23.954ZM97.8216 27.032C97.8216 26.288 97.6716 25.64 97.3716 25.088C97.0716 24.536 96.6636 24.116 96.1476 23.828C95.6436 23.54 95.0856 23.396 94.4736 23.396C93.8736 23.396 93.3156 23.546 92.7996 23.846C92.2956 24.134 91.8876 24.56 91.5756 25.124C91.2756 25.676 91.1256 26.318 91.1256 27.05C91.1256 27.794 91.2756 28.448 91.5756 29.012C91.8876 29.564 92.2956 29.99 92.7996 30.29C93.3156 30.578 93.8736 30.722 94.4736 30.722C95.0856 30.722 95.6436 30.578 96.1476 30.29C96.6636 29.99 97.0716 29.564 97.3716 29.012C97.6716 28.448 97.8216 27.788 97.8216 27.032ZM103.29 23.954C103.614 23.39 104.094 22.922 104.73 22.55C105.378 22.166 106.128 21.974 106.98 21.974C107.856 21.974 108.648 22.184 109.356 22.604C110.076 23.024 110.64 23.618 111.048 24.386C111.456 25.142 111.66 26.024 111.66 27.032C111.66 28.028 111.456 28.916 111.048 29.696C110.64 30.476 110.076 31.082 109.356 31.514C108.648 31.946 107.856 32.162 106.98 32.162C106.14 32.162 105.396 31.976 104.748 31.604C104.112 31.22 103.626 30.746 103.29 30.182V36.68H101.652V22.136H103.29V23.954ZM109.986 27.032C109.986 26.288 109.836 25.64 109.536 25.088C109.236 24.536 108.828 24.116 108.312 23.828C107.808 23.54 107.25 23.396 106.638 23.396C106.038 23.396 105.48 23.546 104.964 23.846C104.46 24.134 104.052 24.56 103.74 25.124C103.44 25.676 103.29 26.318 103.29 27.05C103.29 27.794 103.44 28.448 103.74 29.012C104.052 29.564 104.46 29.99 104.964 30.29C105.48 30.578 106.038 30.722 106.638 30.722C107.25 30.722 107.808 30.578 108.312 30.29C108.828 29.99 109.236 29.564 109.536 29.012C109.836 28.448 109.986 27.788 109.986 27.032Z" fill="black"/>
</svg>
